<?xml version="1.0" encoding="UTF-8" standalone="no"?>
<!DOCTYPE svg PUBLIC "-//W3C//DTD SVG 1.1//EN"
 "http://www.w3.org/Graphics/SVG/1.1/DTD/svg11.dtd">
<!-- Generated by graphviz version 2.40.1 (20161225.0304)
 -->
<!-- Title: gocallvis Pages: 1 -->
<svg width="623pt" height="2178pt"
 viewBox="0.00 0.00 622.96 2177.80" xmlns="http://www.w3.org/2000/svg" xmlns:xlink="http://www.w3.org/1999/xlink">
<g id="graph0" class="graph" transform="scale(1 1) rotate(0) translate(0 2177.8)">
<title>gocallvis</title>
<polygon fill="#d3d3d3" stroke="transparent" points="0,0 0,-2177.8 622.9639,-2177.8 622.9639,0 0,0"/>
<text text-anchor="middle" x="139.8555" y="-8.2" font-family="Arial" font-size="14.00" fill="#000000">github.com/cloud&#45;barista/cb&#45;tumblebug/src</text>
<g id="clust1" class="cluster">
<title>cluster_focus</title>
<polygon fill="#e6ecfa" stroke="#000000" stroke-width=".5" points="8,-32.8 8,-2169.8 614.9639,-2169.8 614.9639,-32.8 8,-32.8"/>
<text text-anchor="middle" x="311.4819" y="-2149.6" font-family="Arial" font-size="18.00" fill="#000000">main</text>
</g>
<g id="clust17" class="cluster">
<title>cluster_google.golang.org/grpc/internal/transport.ConnectionError</title>
<g id="a_clust17"><a xlink:title="type: google.golang.org/grpc/internal/transport.ConnectionError">
<path fill="#eed8ae" stroke="#000000" stroke-width=".5" d="M183.4185,-2041.8C183.4185,-2041.8 294.1058,-2041.8 294.1058,-2041.8 300.1058,-2041.8 306.1058,-2047.8 306.1058,-2053.8 306.1058,-2053.8 306.1058,-2119.8 306.1058,-2119.8 306.1058,-2125.8 300.1058,-2131.8 294.1058,-2131.8 294.1058,-2131.8 183.4185,-2131.8 183.4185,-2131.8 177.4185,-2131.8 171.4185,-2125.8 171.4185,-2119.8 171.4185,-2119.8 171.4185,-2053.8 171.4185,-2053.8 171.4185,-2047.8 177.4185,-2041.8 183.4185,-2041.8"/>
<text text-anchor="middle" x="238.7621" y="-2050.3" font-family="Arial" font-size="15.00" fill="#222222">(ConnectionError)</text>
</a>
</g>
</g>
<g id="clust16" class="cluster">
<title>cluster_golang.org/x/net/http2.connError</title>
<g id="a_clust16"><a xlink:title="type: golang.org/x/net/http2.connError">
<path fill="#eed8ae" stroke="#000000" stroke-width=".5" d="M205.2621,-1943.8C205.2621,-1943.8 272.2621,-1943.8 272.2621,-1943.8 278.2621,-1943.8 284.2621,-1949.8 284.2621,-1955.8 284.2621,-1955.8 284.2621,-2021.8 284.2621,-2021.8 284.2621,-2027.8 278.2621,-2033.8 272.2621,-2033.8 272.2621,-2033.8 205.2621,-2033.8 205.2621,-2033.8 199.2621,-2033.8 193.2621,-2027.8 193.2621,-2021.8 193.2621,-2021.8 193.2621,-1955.8 193.2621,-1955.8 193.2621,-1949.8 199.2621,-1943.8 205.2621,-1943.8"/>
<text text-anchor="middle" x="238.7621" y="-1952.3" font-family="Arial" font-size="15.00" fill="#222222">(connError)</text>
</a>
</g>
</g>
<g id="clust15" class="cluster">
<title>cluster_golang.org/x/net/http2.StreamError</title>
<g id="a_clust15"><a xlink:title="type: golang.org/x/net/http2.StreamError">
<path fill="#eed8ae" stroke="#000000" stroke-width=".5" d="M197.2621,-1845.8C197.2621,-1845.8 280.2621,-1845.8 280.2621,-1845.8 286.2621,-1845.8 292.2621,-1851.8 292.2621,-1857.8 292.2621,-1857.8 292.2621,-1923.8 292.2621,-1923.8 292.2621,-1929.8 286.2621,-1935.8 280.2621,-1935.8 280.2621,-1935.8 197.2621,-1935.8 197.2621,-1935.8 191.2621,-1935.8 185.2621,-1929.8 185.2621,-1923.8 185.2621,-1923.8 185.2621,-1857.8 185.2621,-1857.8 185.2621,-1851.8 191.2621,-1845.8 197.2621,-1845.8"/>
<text text-anchor="middle" x="238.7621" y="-1854.3" font-family="Arial" font-size="15.00" fill="#222222">(StreamError)</text>
</a>
</g>
</g>
<g id="clust14" class="cluster">
<title>cluster_golang.org/x/net/http2.GoAwayError</title>
<g id="a_clust14"><a xlink:title="type: golang.org/x/net/http2.GoAwayError">
<path fill="#eed8ae" stroke="#000000" stroke-width=".5" d="M193.2621,-1747.8C193.2621,-1747.8 284.2621,-1747.8 284.2621,-1747.8 290.2621,-1747.8 296.2621,-1753.8 296.2621,-1759.8 296.2621,-1759.8 296.2621,-1825.8 296.2621,-1825.8 296.2621,-1831.8 290.2621,-1837.8 284.2621,-1837.8 284.2621,-1837.8 193.2621,-1837.8 193.2621,-1837.8 187.2621,-1837.8 181.2621,-1831.8 181.2621,-1825.8 181.2621,-1825.8 181.2621,-1759.8 181.2621,-1759.8 181.2621,-1753.8 187.2621,-1747.8 193.2621,-1747.8"/>
<text text-anchor="middle" x="238.7621" y="-1756.3" font-family="Arial" font-size="15.00" fill="#222222">(GoAwayError)</text>
</a>
</g>
</g>
<g id="clust13" class="cluster">
<title>cluster_golang.org/x/net/http2.ConnectionError</title>
<g id="a_clust13"><a xlink:title="type: golang.org/x/net/http2.ConnectionError">
<path fill="#eed8ae" stroke="#000000" stroke-width=".5" d="M183.2621,-1649.8C183.2621,-1649.8 294.2621,-1649.8 294.2621,-1649.8 300.2621,-1649.8 306.2621,-1655.8 306.2621,-1661.8 306.2621,-1661.8 306.2621,-1727.8 306.2621,-1727.8 306.2621,-1733.8 300.2621,-1739.8 294.2621,-1739.8 294.2621,-1739.8 183.2621,-1739.8 183.2621,-1739.8 177.2621,-1739.8 171.2621,-1733.8 171.2621,-1727.8 171.2621,-1727.8 171.2621,-1661.8 171.2621,-1661.8 171.2621,-1655.8 177.2621,-1649.8 183.2621,-1649.8"/>
<text text-anchor="middle" x="238.7621" y="-1658.3" font-family="Arial" font-size="15.00" fill="#222222">(ConnectionError)</text>
</a>
</g>
</g>
<g id="clust12" class="cluster">
<title>cluster_golang.org/x/crypto/ssh.cbcError</title>
<g id="a_clust12"><a xlink:title="type: golang.org/x/crypto/ssh.cbcError">
<path fill="#eed8ae" stroke="#000000" stroke-width=".5" d="M209.2621,-1551.8C209.2621,-1551.8 267.2621,-1551.8 267.2621,-1551.8 273.2621,-1551.8 279.2621,-1557.8 279.2621,-1563.8 279.2621,-1563.8 279.2621,-1629.8 279.2621,-1629.8 279.2621,-1635.8 273.2621,-1641.8 267.2621,-1641.8 267.2621,-1641.8 209.2621,-1641.8 209.2621,-1641.8 203.2621,-1641.8 197.2621,-1635.8 197.2621,-1629.8 197.2621,-1629.8 197.2621,-1563.8 197.2621,-1563.8 197.2621,-1557.8 203.2621,-1551.8 209.2621,-1551.8"/>
<text text-anchor="middle" x="238.2621" y="-1560.3" font-family="Arial" font-size="15.00" fill="#222222">(cbcError)</text>
</a>
</g>
</g>
<g id="clust11" class="cluster">
<title>cluster_github.com/uber/jaeger&#45;client&#45;go/thrift.tApplicationException</title>
<g id="a_clust11"><a xlink:title="type: github.com/uber/jaeger&#45;client&#45;go/thrift.tApplicationException">
<path fill="#eed8ae" stroke="#000000" stroke-width=".5" d="M166.2621,-1453.8C166.2621,-1453.8 311.2621,-1453.8 311.2621,-1453.8 317.2621,-1453.8 323.2621,-1459.8 323.2621,-1465.8 323.2621,-1465.8 323.2621,-1531.8 323.2621,-1531.8 323.2621,-1537.8 317.2621,-1543.8 311.2621,-1543.8 311.2621,-1543.8 166.2621,-1543.8 166.2621,-1543.8 160.2621,-1543.8 154.2621,-1537.8 154.2621,-1531.8 154.2621,-1531.8 154.2621,-1465.8 154.2621,-1465.8 154.2621,-1459.8 160.2621,-1453.8 166.2621,-1453.8"/>
<text text-anchor="middle" x="238.7621" y="-1462.3" font-family="Arial" font-size="15.00" fill="#222222">(tApplicationException)</text>
</a>
</g>
</g>
<g id="clust10" class="cluster">
<title>cluster_github.com/mattn/go&#45;sqlite3.Error</title>
<g id="a_clust10"><a xlink:title="type: github.com/mattn/go&#45;sqlite3.Error">
<path fill="#eed8ae" stroke="#000000" stroke-width=".5" d="M210.2083,-1355.8C210.2083,-1355.8 266.316,-1355.8 266.316,-1355.8 272.316,-1355.8 278.316,-1361.8 278.316,-1367.8 278.316,-1367.8 278.316,-1433.8 278.316,-1433.8 278.316,-1439.8 272.316,-1445.8 266.316,-1445.8 266.316,-1445.8 210.2083,-1445.8 210.2083,-1445.8 204.2083,-1445.8 198.2083,-1439.8 198.2083,-1433.8 198.2083,-1433.8 198.2083,-1367.8 198.2083,-1367.8 198.2083,-1361.8 204.2083,-1355.8 210.2083,-1355.8"/>
<text text-anchor="middle" x="238.2621" y="-1364.3" font-family="Arial" font-size="15.00" fill="#222222">(Error)</text>
</a>
</g>
</g>
<g id="clust9" class="cluster">
<title>cluster_*xorm.io/xorm.Engine</title>
<g id="a_clust9"><a xlink:title="type: *xorm.io/xorm.Engine">
<path fill="#eed8ae" stroke="#000000" stroke-width=".5" d="M161.2701,-1111.8C161.2701,-1111.8 315.2541,-1111.8 315.2541,-1111.8 321.2541,-1111.8 327.2541,-1117.8 327.2541,-1123.8 327.2541,-1123.8 327.2541,-1335.8 327.2541,-1335.8 327.2541,-1341.8 321.2541,-1347.8 315.2541,-1347.8 315.2541,-1347.8 161.2701,-1347.8 161.2701,-1347.8 155.2701,-1347.8 149.2701,-1341.8 149.2701,-1335.8 149.2701,-1335.8 149.2701,-1123.8 149.2701,-1123.8 149.2701,-1117.8 155.2701,-1111.8 161.2701,-1111.8"/>
<text text-anchor="middle" x="238.2621" y="-1120.3" font-family="Arial" font-size="15.00" fill="#222222">(*Engine)</text>
</a>
</g>
</g>
<g id="clust8" class="cluster">
<title>cluster_*google.golang.org/grpc/status.statusError</title>
<g id="a_clust8"><a xlink:title="type: *google.golang.org/grpc/status.statusError">
<path fill="#eed8ae" stroke="#000000" stroke-width=".5" d="M198.0592,-1013.8C198.0592,-1013.8 278.4651,-1013.8 278.4651,-1013.8 284.4651,-1013.8 290.4651,-1019.8 290.4651,-1025.8 290.4651,-1025.8 290.4651,-1091.8 290.4651,-1091.8 290.4651,-1097.8 284.4651,-1103.8 278.4651,-1103.8 278.4651,-1103.8 198.0592,-1103.8 198.0592,-1103.8 192.0592,-1103.8 186.0592,-1097.8 186.0592,-1091.8 186.0592,-1091.8 186.0592,-1025.8 186.0592,-1025.8 186.0592,-1019.8 192.0592,-1013.8 198.0592,-1013.8"/>
<text text-anchor="middle" x="238.2621" y="-1022.3" font-family="Arial" font-size="15.00" fill="#222222">(*statusError)</text>
</a>
</g>
</g>
<g id="clust7" class="cluster">
<title>cluster_*golang.org/x/crypto/ssh.disconnectMsg</title>
<g id="a_clust7"><a xlink:title="type: *golang.org/x/crypto/ssh.disconnectMsg">
<path fill="#eed8ae" stroke="#000000" stroke-width=".5" d="M185.2621,-915.8C185.2621,-915.8 292.2621,-915.8 292.2621,-915.8 298.2621,-915.8 304.2621,-921.8 304.2621,-927.8 304.2621,-927.8 304.2621,-993.8 304.2621,-993.8 304.2621,-999.8 298.2621,-1005.8 292.2621,-1005.8 292.2621,-1005.8 185.2621,-1005.8 185.2621,-1005.8 179.2621,-1005.8 173.2621,-999.8 173.2621,-993.8 173.2621,-993.8 173.2621,-927.8 173.2621,-927.8 173.2621,-921.8 179.2621,-915.8 185.2621,-915.8"/>
<text text-anchor="middle" x="238.7621" y="-924.3" font-family="Arial" font-size="15.00" fill="#222222">(*disconnectMsg)</text>
</a>
</g>
</g>
<g id="clust6" class="cluster">
<title>cluster_*go.uber.org/multierr.multiError</title>
<g id="a_clust6"><a xlink:title="type: *go.uber.org/multierr.multiError">
<path fill="#eed8ae" stroke="#000000" stroke-width=".5" d="M202.716,-817.8C202.716,-817.8 274.8082,-817.8 274.8082,-817.8 280.8082,-817.8 286.8082,-823.8 286.8082,-829.8 286.8082,-829.8 286.8082,-895.8 286.8082,-895.8 286.8082,-901.8 280.8082,-907.8 274.8082,-907.8 274.8082,-907.8 202.716,-907.8 202.716,-907.8 196.716,-907.8 190.716,-901.8 190.716,-895.8 190.716,-895.8 190.716,-829.8 190.716,-829.8 190.716,-823.8 196.716,-817.8 202.716,-817.8"/>
<text text-anchor="middle" x="238.7621" y="-826.3" font-family="Arial" font-size="15.00" fill="#222222">(*multiError)</text>
</a>
</g>
</g>
<g id="clust5" class="cluster">
<title>cluster_*github.com/uber/jaeger&#45;client&#45;go/thrift.tTransportException</title>
<g id="a_clust5"><a xlink:title="type: *github.com/uber/jaeger&#45;client&#45;go/thrift.tTransportException">
<path fill="#eed8ae" stroke="#000000" stroke-width=".5" d="M167.2621,-719.8C167.2621,-719.8 309.2621,-719.8 309.2621,-719.8 315.2621,-719.8 321.2621,-725.8 321.2621,-731.8 321.2621,-731.8 321.2621,-797.8 321.2621,-797.8 321.2621,-803.8 315.2621,-809.8 309.2621,-809.8 309.2621,-809.8 167.2621,-809.8 167.2621,-809.8 161.2621,-809.8 155.2621,-803.8 155.2621,-797.8 155.2621,-797.8 155.2621,-731.8 155.2621,-731.8 155.2621,-725.8 161.2621,-719.8 167.2621,-719.8"/>
<text text-anchor="middle" x="238.2621" y="-728.3" font-family="Arial" font-size="15.00" fill="#222222">(*tTransportException)</text>
</a>
</g>
</g>
<g id="clust4" class="cluster">
<title>cluster_*github.com/uber/jaeger&#45;client&#45;go/thrift.tProtocolException</title>
<g id="a_clust4"><a xlink:title="type: *github.com/uber/jaeger&#45;client&#45;go/thrift.tProtocolException">
<path fill="#eed8ae" stroke="#000000" stroke-width=".5" d="M172.2621,-621.8C172.2621,-621.8 304.2621,-621.8 304.2621,-621.8 310.2621,-621.8 316.2621,-627.8 316.2621,-633.8 316.2621,-633.8 316.2621,-699.8 316.2621,-699.8 316.2621,-705.8 310.2621,-711.8 304.2621,-711.8 304.2621,-711.8 172.2621,-711.8 172.2621,-711.8 166.2621,-711.8 160.2621,-705.8 160.2621,-699.8 160.2621,-699.8 160.2621,-633.8 160.2621,-633.8 160.2621,-627.8 166.2621,-621.8 172.2621,-621.8"/>
<text text-anchor="middle" x="238.2621" y="-630.3" font-family="Arial" font-size="15.00" fill="#222222">(*tProtocolException)</text>
</a>
</g>
</g>
<g id="clust3" class="cluster">
<title>cluster_*github.com/syndtr/goleveldb/leveldb/errors.ErrCorrupted</title>
<g id="a_clust3"><a xlink:title="type: *github.com/syndtr/goleveldb/leveldb/errors.ErrCorrupted">
<path fill="#eed8ae" stroke="#000000" stroke-width=".5" d="M191.5246,-523.8C191.5246,-523.8 285.9997,-523.8 285.9997,-523.8 291.9997,-523.8 297.9997,-529.8 297.9997,-535.8 297.9997,-535.8 297.9997,-601.8 297.9997,-601.8 297.9997,-607.8 291.9997,-613.8 285.9997,-613.8 285.9997,-613.8 191.5246,-613.8 191.5246,-613.8 185.5246,-613.8 179.5246,-607.8 179.5246,-601.8 179.5246,-601.8 179.5246,-535.8 179.5246,-535.8 179.5246,-529.8 185.5246,-523.8 191.5246,-523.8"/>
<text text-anchor="middle" x="238.7621" y="-532.3" font-family="Arial" font-size="15.00" fill="#222222">(*ErrCorrupted)</text>
</a>
</g>
</g>
<g id="clust2" class="cluster">
<title>cluster_*github.com/go&#45;sql&#45;driver/mysql.MySQLError</title>
<g id="a_clust2"><a xlink:title="type: *github.com/go&#45;sql&#45;driver/mysql.MySQLError">
<path fill="#eed8ae" stroke="#000000" stroke-width=".5" d="M193.404,-425.8C193.404,-425.8 284.1203,-425.8 284.1203,-425.8 290.1203,-425.8 296.1203,-431.8 296.1203,-437.8 296.1203,-437.8 296.1203,-503.8 296.1203,-503.8 296.1203,-509.8 290.1203,-515.8 284.1203,-515.8 284.1203,-515.8 193.404,-515.8 193.404,-515.8 187.404,-515.8 181.404,-509.8 181.404,-503.8 181.404,-503.8 181.404,-437.8 181.404,-437.8 181.404,-431.8 187.404,-425.8 193.404,-425.8"/>
<text text-anchor="middle" x="238.7621" y="-434.3" font-family="Arial" font-size="15.00" fill="#222222">(*MySQLError)</text>
</a>
</g>
</g>
<!-- github.com/cloud&#45;barista/cb&#45;tumblebug/src.main$1 -->
<g id="node1" class="node">
<title>github.com/cloud&#45;barista/cb&#45;tumblebug/src.main$1</title>
<ellipse fill="#add8e6" stroke="#000000" stroke-dasharray="1,5" cx="238.2621" cy="-58.8" rx="28.0306" ry="18"/>
<text text-anchor="middle" x="238.2621" y="-54.6" font-family="Verdana" font-size="14.00" fill="#000000">main$1</text>
</g>
<!-- github.com/cloud&#45;barista/cb&#45;tumblebug/src/core/mcis.OrchestrationController -->
<g id="node2" class="node">
<title>github.com/cloud&#45;barista/cb&#45;tumblebug/src/core/mcis.OrchestrationController</title>
<ellipse fill="#ffe4b5" stroke="#000000" stroke-width="1.5" cx="506.7441" cy="-64.8" rx="100.4401" ry="23.52"/>
<text text-anchor="middle" x="506.7441" y="-69" font-family="Verdana" font-size="14.00" fill="#000000">mcis</text>
<text text-anchor="middle" x="506.7441" y="-52.2" font-family="Verdana" font-size="14.00" fill="#000000">OrchestrationController</text>
</g>
<!-- github.com/cloud&#45;barista/cb&#45;tumblebug/src.main$1&#45;&gt;github.com/cloud&#45;barista/cb&#45;tumblebug/src/core/mcis.OrchestrationController -->
<g id="edge1" class="edge">
<title>github.com/cloud&#45;barista/cb&#45;tumblebug/src.main$1&#45;&gt;github.com/cloud&#45;barista/cb&#45;tumblebug/src/core/mcis.OrchestrationController</title>
<path fill="none" stroke="#8b4513" d="M266.7402,-59.4364C297.7976,-60.1305 349.4233,-61.2842 396.853,-62.3442"/>
<polygon fill="#8b4513" stroke="#8b4513" points="396.8256,-65.8443 406.9014,-62.5687 396.9821,-58.8461 396.8256,-65.8443"/>
</g>
<!-- github.com/cloud&#45;barista/cb&#45;tumblebug/src.main -->
<g id="node3" class="node">
<title>github.com/cloud&#45;barista/cb&#45;tumblebug/src.main</title>
<ellipse fill="#add8e6" stroke="#000000" stroke-width=".5" cx="43" cy="-1022.8" rx="27" ry="18"/>
<text text-anchor="middle" x="43" y="-1018.6" font-family="Verdana" font-size="14.00" fill="#000000">main</text>
</g>
<!-- github.com/cloud&#45;barista/cb&#45;tumblebug/src.main&#45;&gt;github.com/cloud&#45;barista/cb&#45;tumblebug/src.main$1 -->
<g id="edge8" class="edge">
<title>github.com/cloud&#45;barista/cb&#45;tumblebug/src.main&#45;&gt;github.com/cloud&#45;barista/cb&#45;tumblebug/src.main$1</title>
<path fill="none" stroke="#000000" d="M43.9333,-1004.6713C48.3059,-922.3114 68.1611,-575.2206 106,-292.8 118.1784,-201.9036 82.6504,-158.8536 143,-89.8 154.2269,-76.9539 170.837,-69.4009 187.0563,-64.9707"/>
<polygon fill="#000000" stroke="#000000" points="200.736,-65.8344 209.8675,-60.4617 199.3786,-58.9673 200.736,-65.8344"/>
<polyline fill="none" stroke="#000000" points="200.0573,-62.4009 195.1522,-63.3704 "/>
<ellipse fill="none" stroke="#000000" cx="191.2281" cy="-64.1461" rx="4" ry="4"/>
</g>
<!-- github.com/cloud&#45;barista/cb&#45;tumblebug/src/core/common.NVL -->
<g id="node4" class="node">
<title>github.com/cloud&#45;barista/cb&#45;tumblebug/src/core/common.NVL</title>
<ellipse fill="#ffe4b5" stroke="#000000" stroke-width="1.5" cx="238.2621" cy="-125.8" rx="40.1052" ry="23.52"/>
<text text-anchor="middle" x="238.2621" y="-130" font-family="Verdana" font-size="14.00" fill="#000000">common</text>
<text text-anchor="middle" x="238.2621" y="-113.2" font-family="Verdana" font-size="14.00" fill="#000000">NVL</text>
</g>
<!-- github.com/cloud&#45;barista/cb&#45;tumblebug/src.main&#45;&gt;github.com/cloud&#45;barista/cb&#45;tumblebug/src/core/common.NVL -->
<g id="edge2" class="edge">
<title>github.com/cloud&#45;barista/cb&#45;tumblebug/src.main&#45;&gt;github.com/cloud&#45;barista/cb&#45;tumblebug/src/core/common.NVL</title>
<path fill="none" stroke="#8b4513" d="M43.948,-1004.4777C50.2335,-885.9408 87.3642,-230.2859 143,-162.8 154.6043,-148.724 172.2544,-139.9864 189.2218,-134.5695"/>
<polygon fill="#8b4513" stroke="#8b4513" points="190.4306,-137.8642 199.0822,-131.7486 188.5052,-131.1342 190.4306,-137.8642"/>
</g>
<!-- github.com/cloud&#45;barista/cb&#45;tumblebug/src/core/common.UpdateGlobalVariable -->
<g id="node5" class="node">
<title>github.com/cloud&#45;barista/cb&#45;tumblebug/src/core/common.UpdateGlobalVariable</title>
<ellipse fill="#ffe4b5" stroke="#000000" stroke-width="1.5" cx="238.2621" cy="-198.8" rx="95.0249" ry="23.52"/>
<text text-anchor="middle" x="238.2621" y="-203" font-family="Verdana" font-size="14.00" fill="#000000">common</text>
<text text-anchor="middle" x="238.2621" y="-186.2" font-family="Verdana" font-size="14.00" fill="#000000">UpdateGlobalVariable</text>
</g>
<!-- github.com/cloud&#45;barista/cb&#45;tumblebug/src.main&#45;&gt;github.com/cloud&#45;barista/cb&#45;tumblebug/src/core/common.UpdateGlobalVariable -->
<g id="edge3" class="edge">
<title>github.com/cloud&#45;barista/cb&#45;tumblebug/src.main&#45;&gt;github.com/cloud&#45;barista/cb&#45;tumblebug/src/core/common.UpdateGlobalVariable</title>
<path fill="none" stroke="#8b4513" d="M44.1875,-1004.6357C51.6563,-892.6091 93.4274,-298.3317 143,-235.8 147.8824,-229.6413 153.9274,-224.5061 160.5865,-220.2246"/>
<polygon fill="#8b4513" stroke="#8b4513" points="162.3593,-223.2427 169.3084,-215.2452 158.8887,-217.1636 162.3593,-223.2427"/>
</g>
<!-- xorm.io/xorm.NewEngine -->
<g id="node6" class="node">
<title>xorm.io/xorm.NewEngine</title>
<ellipse fill="#ffe4b5" stroke="#000000" stroke-width="1.5" cx="238.2621" cy="-271.8" rx="52.2731" ry="23.52"/>
<text text-anchor="middle" x="238.2621" y="-276" font-family="Verdana" font-size="14.00" fill="#000000">xorm</text>
<text text-anchor="middle" x="238.2621" y="-259.2" font-family="Verdana" font-size="14.00" fill="#000000">NewEngine</text>
</g>
<!-- github.com/cloud&#45;barista/cb&#45;tumblebug/src.main&#45;&gt;xorm.io/xorm.NewEngine -->
<g id="edge4" class="edge">
<title>github.com/cloud&#45;barista/cb&#45;tumblebug/src.main&#45;&gt;xorm.io/xorm.NewEngine</title>
<path fill="none" stroke="#8b4513" d="M45.0328,-1004.5129C57.1954,-895.6903 120.5635,-337.135 143,-308.8 152.2174,-297.1594 165.5887,-289.1755 179.413,-283.7014"/>
<polygon fill="#8b4513" stroke="#8b4513" points="180.7551,-286.9391 189.0106,-280.2986 178.4158,-280.3415 180.7551,-286.9391"/>
</g>
<!-- github.com/cloud&#45;barista/cb&#45;tumblebug/src.main$2 -->
<g id="node7" class="node">
<title>github.com/cloud&#45;barista/cb&#45;tumblebug/src.main$2</title>
<ellipse fill="#add8e6" stroke="#000000" stroke-dasharray="1,5" cx="238.2621" cy="-338.8" rx="28.0306" ry="18"/>
<text text-anchor="middle" x="238.2621" y="-334.6" font-family="Verdana" font-size="14.00" fill="#000000">main$2</text>
</g>
<!-- github.com/cloud&#45;barista/cb&#45;tumblebug/src.main&#45;&gt;github.com/cloud&#45;barista/cb&#45;tumblebug/src.main$2 -->
<g id="edge10" class="edge">
<title>github.com/cloud&#45;barista/cb&#45;tumblebug/src.main&#45;&gt;github.com/cloud&#45;barista/cb&#45;tumblebug/src.main$2</title>
<path fill="none" stroke="#000000" d="M46.2044,-1004.8388C55.9343,-950.0474 85.7667,-780.1591 107,-638.8 115.9587,-579.1584 104.3958,-416.1368 143,-369.8 154.0591,-356.5257 170.8798,-348.8856 187.3254,-344.5057"/>
<polygon fill="#000000" stroke="#000000" points="200.8869,-345.4943 210.0589,-340.191 199.5816,-338.6171 200.8869,-345.4943"/>
<polyline fill="none" stroke="#000000" points="200.2342,-342.0557 195.3219,-342.9881 "/>
<ellipse fill="none" stroke="#000000" cx="191.3921" cy="-343.734" rx="4" ry="4"/>
</g>
<!-- github.com/cloud&#45;barista/cb&#45;tumblebug/src.main$3 -->
<g id="node9" class="node">
<title>github.com/cloud&#45;barista/cb&#45;tumblebug/src.main$3</title>
<ellipse fill="#add8e6" stroke="#000000" stroke-dasharray="1,5" cx="238.2621" cy="-399.8" rx="28.0306" ry="18"/>
<text text-anchor="middle" x="238.2621" y="-395.6" font-family="Verdana" font-size="14.00" fill="#000000">main$3</text>
</g>
<!-- github.com/cloud&#45;barista/cb&#45;tumblebug/src.main&#45;&gt;github.com/cloud&#45;barista/cb&#45;tumblebug/src.main$3 -->
<g id="edge12" class="edge">
<title>github.com/cloud&#45;barista/cb&#45;tumblebug/src.main&#45;&gt;github.com/cloud&#45;barista/cb&#45;tumblebug/src.main$3</title>
<path fill="none" stroke="#000000" d="M47.7185,-1004.9266C59.3666,-960.219 89.7869,-839.8091 107,-737.8 118.7597,-668.1088 95.94,-474.5306 143,-421.8 154.0222,-409.4497 170.4713,-403.3164 186.613,-400.4557"/>
<polygon fill="#000000" stroke="#000000" points="200.1284,-402.6854 209.7518,-398.2538 199.4652,-395.7169 200.1284,-402.6854"/>
<polyline fill="none" stroke="#000000" points="199.7968,-399.2012 194.8193,-399.6748 "/>
<ellipse fill="none" stroke="#000000" cx="190.8373" cy="-400.0538" rx="4" ry="4"/>
</g>
<!-- (*github.com/go&#45;sql&#45;driver/mysql.MySQLError).Error -->
<g id="node11" class="node">
<title>(*github.com/go&#45;sql&#45;driver/mysql.MySQLError).Error</title>
<ellipse fill="#ffe4b5" stroke="#000000" stroke-width="1.5" cx="238.2621" cy="-483.8" rx="29.717" ry="23.52"/>
<text text-anchor="middle" x="238.2621" y="-488" font-family="Verdana" font-size="14.00" fill="#000000">mysql</text>
<text text-anchor="middle" x="238.2621" y="-471.2" font-family="Verdana" font-size="14.00" fill="#000000">Error</text>
</g>
<!-- github.com/cloud&#45;barista/cb&#45;tumblebug/src.main&#45;&gt;(*github.com/go&#45;sql&#45;driver/mysql.MySQLError).Error -->
<g id="edge25" class="edge">
<title>github.com/cloud&#45;barista/cb&#45;tumblebug/src.main&#45;&gt;(*github.com/go&#45;sql&#45;driver/mysql.MySQLError).Error</title>
<path fill="none" stroke="#8b4513" stroke-dasharray="5,2" d="M49.0853,-1005.1915C61.7359,-967.9342 91.0223,-878.1871 107,-800.8 119.8186,-738.7138 103.2728,-567.204 143,-517.8 156.4003,-501.1356 178.6071,-492.6318 198.2101,-488.2957"/>
<polygon fill="#8b4513" stroke="#8b4513" points="199.0017,-491.7077 208.1635,-486.3869 197.6832,-484.833 199.0017,-491.7077"/>
</g>
<!-- (*github.com/syndtr/goleveldb/leveldb/errors.ErrCorrupted).Error -->
<g id="node12" class="node">
<title>(*github.com/syndtr/goleveldb/leveldb/errors.ErrCorrupted).Error</title>
<ellipse fill="#ffe4b5" stroke="#000000" stroke-width="1.5" cx="238.2621" cy="-581.8" rx="28.977" ry="23.52"/>
<text text-anchor="middle" x="238.2621" y="-586" font-family="Verdana" font-size="14.00" fill="#000000">errors</text>
<text text-anchor="middle" x="238.2621" y="-569.2" font-family="Verdana" font-size="14.00" fill="#000000">Error</text>
</g>
<!-- github.com/cloud&#45;barista/cb&#45;tumblebug/src.main&#45;&gt;(*github.com/syndtr/goleveldb/leveldb/errors.ErrCorrupted).Error -->
<g id="edge26" class="edge">
<title>github.com/cloud&#45;barista/cb&#45;tumblebug/src.main&#45;&gt;(*github.com/syndtr/goleveldb/leveldb/errors.ErrCorrupted).Error</title>
<path fill="none" stroke="#8b4513" stroke-dasharray="5,2" d="M50.7034,-1005.067C64.0838,-973.5882 91.6545,-905.6213 107,-845.8 132.7092,-745.5782 77.0103,-695.4915 143,-615.8 156.9245,-598.9843 179.7927,-590.4826 199.6332,-586.1856"/>
<polygon fill="#8b4513" stroke="#8b4513" points="200.4874,-589.5864 209.6691,-584.3 199.1948,-582.7068 200.4874,-589.5864"/>
</g>
<!-- (*github.com/uber/jaeger&#45;client&#45;go/thrift.tProtocolException).Error -->
<g id="node13" class="node">
<title>(*github.com/uber/jaeger&#45;client&#45;go/thrift.tProtocolException).Error</title>
<ellipse fill="#ffe4b5" stroke="#000000" stroke-width="1.5" cx="238.2621" cy="-679.8" rx="27" ry="23.52"/>
<text text-anchor="middle" x="238.2621" y="-684" font-family="Verdana" font-size="14.00" fill="#000000">thrift</text>
<text text-anchor="middle" x="238.2621" y="-667.2" font-family="Verdana" font-size="14.00" fill="#000000">Error</text>
</g>
<!-- github.com/cloud&#45;barista/cb&#45;tumblebug/src.main&#45;&gt;(*github.com/uber/jaeger&#45;client&#45;go/thrift.tProtocolException).Error -->
<g id="edge27" class="edge">
<title>github.com/cloud&#45;barista/cb&#45;tumblebug/src.main&#45;&gt;(*github.com/uber/jaeger&#45;client&#45;go/thrift.tProtocolException).Error</title>
<path fill="none" stroke="#8b4513" stroke-dasharray="5,2" d="M52.3364,-1005.4832C66.0765,-979.3607 91.7588,-928.0093 107,-881.8 130.9188,-809.281 92.6749,-771.2325 143,-713.8 157.684,-697.0421 181.2138,-688.5436 201.2136,-684.2338"/>
<polygon fill="#8b4513" stroke="#8b4513" points="202.1038,-687.6278 211.2849,-682.3403 200.8103,-680.7484 202.1038,-687.6278"/>
</g>
<!-- (*github.com/uber/jaeger&#45;client&#45;go/thrift.tTransportException).Error -->
<g id="node14" class="node">
<title>(*github.com/uber/jaeger&#45;client&#45;go/thrift.tTransportException).Error</title>
<ellipse fill="#ffe4b5" stroke="#000000" stroke-width="1.5" cx="238.2621" cy="-777.8" rx="27" ry="23.52"/>
<text text-anchor="middle" x="238.2621" y="-782" font-family="Verdana" font-size="14.00" fill="#000000">thrift</text>
<text text-anchor="middle" x="238.2621" y="-765.2" font-family="Verdana" font-size="14.00" fill="#000000">Error</text>
</g>
<!-- github.com/cloud&#45;barista/cb&#45;tumblebug/src.main&#45;&gt;(*github.com/uber/jaeger&#45;client&#45;go/thrift.tTransportException).Error -->
<g id="edge16" class="edge">
<title>github.com/cloud&#45;barista/cb&#45;tumblebug/src.main&#45;&gt;(*github.com/uber/jaeger&#45;client&#45;go/thrift.tTransportException).Error</title>
<path fill="none" stroke="#8b4513" stroke-dasharray="5,2" d="M54.0111,-1006.3502C67.6687,-985.4662 91.0904,-948.0276 107,-913.8 127.2636,-870.2053 109.0665,-845.8533 143,-811.8 158.6218,-796.1231 181.9506,-787.6414 201.6118,-783.07"/>
<polygon fill="#8b4513" stroke="#8b4513" points="202.4184,-786.4773 211.4987,-781.0185 200.9962,-779.6233 202.4184,-786.4773"/>
</g>
<!-- (*go.uber.org/multierr.multiError).Error -->
<g id="node15" class="node">
<title>(*go.uber.org/multierr.multiError).Error</title>
<ellipse fill="#ffe4b5" stroke="#000000" stroke-width="1.5" cx="238.2621" cy="-875.8" rx="37.5923" ry="23.52"/>
<text text-anchor="middle" x="238.2621" y="-880" font-family="Verdana" font-size="14.00" fill="#000000">multierr</text>
<text text-anchor="middle" x="238.2621" y="-863.2" font-family="Verdana" font-size="14.00" fill="#000000">Error</text>
</g>
<!-- github.com/cloud&#45;barista/cb&#45;tumblebug/src.main&#45;&gt;(*go.uber.org/multierr.multiError).Error -->
<g id="edge15" class="edge">
<title>github.com/cloud&#45;barista/cb&#45;tumblebug/src.main&#45;&gt;(*go.uber.org/multierr.multiError).Error</title>
<path fill="none" stroke="#8b4513" stroke-dasharray="5,2" d="M55.7496,-1006.4807C77.7597,-978.6505 122.4926,-923.6675 143,-909.8 157.9376,-899.6989 176.2192,-892.2308 192.7587,-886.9086"/>
<polygon fill="#8b4513" stroke="#8b4513" points="194.2323,-890.1192 202.7862,-883.8678 192.2008,-883.4204 194.2323,-890.1192"/>
</g>
<!-- (*golang.org/x/crypto/ssh.disconnectMsg).Error -->
<g id="node16" class="node">
<title>(*golang.org/x/crypto/ssh.disconnectMsg).Error</title>
<ellipse fill="#ffe4b5" stroke="#000000" stroke-width="1.5" cx="238.2621" cy="-973.8" rx="27" ry="23.52"/>
<text text-anchor="middle" x="238.2621" y="-978" font-family="Verdana" font-size="14.00" fill="#000000">ssh</text>
<text text-anchor="middle" x="238.2621" y="-961.2" font-family="Verdana" font-size="14.00" fill="#000000">Error</text>
</g>
<!-- github.com/cloud&#45;barista/cb&#45;tumblebug/src.main&#45;&gt;(*golang.org/x/crypto/ssh.disconnectMsg).Error -->
<g id="edge20" class="edge">
<title>github.com/cloud&#45;barista/cb&#45;tumblebug/src.main&#45;&gt;(*golang.org/x/crypto/ssh.disconnectMsg).Error</title>
<path fill="none" stroke="#8b4513" stroke-dasharray="5,2" d="M68.5271,-1016.3941C102.6894,-1007.8213 163.4637,-992.5703 202.2646,-982.8334"/>
<polygon fill="#8b4513" stroke="#8b4513" points="203.2582,-986.1927 212.1055,-980.3639 201.5543,-979.4032 203.2582,-986.1927"/>
</g>
<!-- (*google.golang.org/grpc/status.statusError).Error -->
<g id="node17" class="node">
<title>(*google.golang.org/grpc/status.statusError).Error</title>
<ellipse fill="#ffe4b5" stroke="#000000" stroke-width="1.5" cx="238.2621" cy="-1071.8" rx="28.4074" ry="23.52"/>
<text text-anchor="middle" x="238.2621" y="-1076" font-family="Verdana" font-size="14.00" fill="#000000">status</text>
<text text-anchor="middle" x="238.2621" y="-1059.2" font-family="Verdana" font-size="14.00" fill="#000000">Error</text>
</g>
<!-- github.com/cloud&#45;barista/cb&#45;tumblebug/src.main&#45;&gt;(*google.golang.org/grpc/status.statusError).Error -->
<g id="edge21" class="edge">
<title>github.com/cloud&#45;barista/cb&#45;tumblebug/src.main&#45;&gt;(*google.golang.org/grpc/status.statusError).Error</title>
<path fill="none" stroke="#8b4513" stroke-dasharray="5,2" d="M68.5271,-1029.2059C102.4047,-1037.7073 162.4526,-1052.776 201.2901,-1062.5221"/>
<polygon fill="#8b4513" stroke="#8b4513" points="200.6087,-1065.9595 211.1599,-1064.9988 202.3125,-1059.17 200.6087,-1065.9595"/>
</g>
<!-- (*xorm.io/xorm.Engine).SetTableMapper -->
<g id="node18" class="node">
<title>(*xorm.io/xorm.Engine).SetTableMapper</title>
<ellipse fill="#ffe4b5" stroke="#000000" stroke-width="1.5" cx="238.2621" cy="-1169.8" rx="71.7524" ry="23.52"/>
<text text-anchor="middle" x="238.2621" y="-1174" font-family="Verdana" font-size="14.00" fill="#000000">xorm</text>
<text text-anchor="middle" x="238.2621" y="-1157.2" font-family="Verdana" font-size="14.00" fill="#000000">SetTableMapper</text>
</g>
<!-- github.com/cloud&#45;barista/cb&#45;tumblebug/src.main&#45;&gt;(*xorm.io/xorm.Engine).SetTableMapper -->
<g id="edge5" class="edge">
<title>github.com/cloud&#45;barista/cb&#45;tumblebug/src.main&#45;&gt;(*xorm.io/xorm.Engine).SetTableMapper</title>
<path fill="none" stroke="#8b4513" d="M58.6428,-1037.7589C77.8048,-1055.7587 111.5993,-1086.468 143,-1109.8 159.0172,-1121.7014 177.4099,-1133.6529 193.7359,-1143.7216"/>
<polygon fill="#8b4513" stroke="#8b4513" points="192.2057,-1146.888 202.5651,-1149.1093 195.852,-1140.9126 192.2057,-1146.888"/>
</g>
<!-- (*xorm.io/xorm.Engine).SetColumnMapper -->
<g id="node19" class="node">
<title>(*xorm.io/xorm.Engine).SetColumnMapper</title>
<ellipse fill="#ffe4b5" stroke="#000000" stroke-width="1.5" cx="238.2621" cy="-1242.8" rx="80.984" ry="23.52"/>
<text text-anchor="middle" x="238.2621" y="-1247" font-family="Verdana" font-size="14.00" fill="#000000">xorm</text>
<text text-anchor="middle" x="238.2621" y="-1230.2" font-family="Verdana" font-size="14.00" fill="#000000">SetColumnMapper</text>
</g>
<!-- github.com/cloud&#45;barista/cb&#45;tumblebug/src.main&#45;&gt;(*xorm.io/xorm.Engine).SetColumnMapper -->
<g id="edge6" class="edge">
<title>github.com/cloud&#45;barista/cb&#45;tumblebug/src.main&#45;&gt;(*xorm.io/xorm.Engine).SetColumnMapper</title>
<path fill="none" stroke="#8b4513" d="M48.1173,-1040.5294C59.387,-1076.5811 89.6776,-1158.9783 143,-1205.8 150.5992,-1212.4728 159.5371,-1218.0084 168.8408,-1222.5824"/>
<polygon fill="#8b4513" stroke="#8b4513" points="167.6777,-1225.8981 178.2304,-1226.8424 170.5699,-1219.5235 167.6777,-1225.8981"/>
</g>
<!-- (*xorm.io/xorm.Engine).Sync2 -->
<g id="node20" class="node">
<title>(*xorm.io/xorm.Engine).Sync2</title>
<ellipse fill="#ffe4b5" stroke="#000000" stroke-width="1.5" cx="238.2621" cy="-1315.8" rx="30.3075" ry="23.52"/>
<text text-anchor="middle" x="238.2621" y="-1320" font-family="Verdana" font-size="14.00" fill="#000000">xorm</text>
<text text-anchor="middle" x="238.2621" y="-1303.2" font-family="Verdana" font-size="14.00" fill="#000000">Sync2</text>
</g>
<!-- github.com/cloud&#45;barista/cb&#45;tumblebug/src.main&#45;&gt;(*xorm.io/xorm.Engine).Sync2 -->
<g id="edge7" class="edge">
<title>github.com/cloud&#45;barista/cb&#45;tumblebug/src.main&#45;&gt;(*xorm.io/xorm.Engine).Sync2</title>
<path fill="none" stroke="#8b4513" d="M45.0819,-1041.005C51.29,-1087.1081 73.7672,-1209.7007 143,-1278.8 157.9025,-1293.6738 179.4594,-1302.7087 198.2989,-1308.1218"/>
<polygon fill="#8b4513" stroke="#8b4513" points="197.578,-1311.551 208.1388,-1310.7023 199.3538,-1304.78 197.578,-1311.551"/>
</g>
<!-- (github.com/mattn/go&#45;sqlite3.Error).Error -->
<g id="node21" class="node">
<title>(github.com/mattn/go&#45;sqlite3.Error).Error</title>
<ellipse fill="#ffe4b5" stroke="#000000" stroke-width="1.5" cx="238.2621" cy="-1413.8" rx="32.1078" ry="23.52"/>
<text text-anchor="middle" x="238.2621" y="-1418" font-family="Verdana" font-size="14.00" fill="#000000">sqlite3</text>
<text text-anchor="middle" x="238.2621" y="-1401.2" font-family="Verdana" font-size="14.00" fill="#000000">Error</text>
</g>
<!-- github.com/cloud&#45;barista/cb&#45;tumblebug/src.main&#45;&gt;(github.com/mattn/go&#45;sqlite3.Error).Error -->
<g id="edge14" class="edge">
<title>github.com/cloud&#45;barista/cb&#45;tumblebug/src.main&#45;&gt;(github.com/mattn/go&#45;sqlite3.Error).Error</title>
<path fill="none" stroke="#8b4513" stroke-dasharray="5,2" d="M44.0116,-1040.9911C47.8475,-1094.5188 65.5238,-1253.9733 143,-1353.8 158.0008,-1373.1282 181.1079,-1387.9001 200.8074,-1397.9502"/>
<polygon fill="#8b4513" stroke="#8b4513" points="199.3427,-1401.1299 209.8648,-1402.3692 202.4121,-1394.8387 199.3427,-1401.1299"/>
</g>
<!-- (github.com/uber/jaeger&#45;client&#45;go/thrift.tApplicationException).Error -->
<g id="node22" class="node">
<title>(github.com/uber/jaeger&#45;client&#45;go/thrift.tApplicationException).Error</title>
<ellipse fill="#ffe4b5" stroke="#000000" stroke-width="1.5" cx="238.2621" cy="-1511.8" rx="27" ry="23.52"/>
<text text-anchor="middle" x="238.2621" y="-1516" font-family="Verdana" font-size="14.00" fill="#000000">thrift</text>
<text text-anchor="middle" x="238.2621" y="-1499.2" font-family="Verdana" font-size="14.00" fill="#000000">Error</text>
</g>
<!-- github.com/cloud&#45;barista/cb&#45;tumblebug/src.main&#45;&gt;(github.com/uber/jaeger&#45;client&#45;go/thrift.tApplicationException).Error -->
<g id="edge24" class="edge">
<title>github.com/cloud&#45;barista/cb&#45;tumblebug/src.main&#45;&gt;(github.com/uber/jaeger&#45;client&#45;go/thrift.tApplicationException).Error</title>
<path fill="none" stroke="#8b4513" stroke-dasharray="5,2" d="M45.3257,-1040.8197C54.9638,-1113.3402 93.5894,-1383.2447 143,-1451.8 158.2622,-1472.9757 183.5251,-1488.3862 204.2013,-1498.284"/>
<polygon fill="#8b4513" stroke="#8b4513" points="202.7751,-1501.4803 213.326,-1502.4445 205.6793,-1495.1111 202.7751,-1501.4803"/>
</g>
<!-- (golang.org/x/crypto/ssh.cbcError).Error -->
<g id="node23" class="node">
<title>(golang.org/x/crypto/ssh.cbcError).Error</title>
<ellipse fill="#ffe4b5" stroke="#000000" stroke-width="1.5" cx="238.2621" cy="-1609.8" rx="27" ry="23.52"/>
<text text-anchor="middle" x="238.2621" y="-1614" font-family="Verdana" font-size="14.00" fill="#000000">ssh</text>
<text text-anchor="middle" x="238.2621" y="-1597.2" font-family="Verdana" font-size="14.00" fill="#000000">Error</text>
</g>
<!-- github.com/cloud&#45;barista/cb&#45;tumblebug/src.main&#45;&gt;(golang.org/x/crypto/ssh.cbcError).Error -->
<g id="edge19" class="edge">
<title>github.com/cloud&#45;barista/cb&#45;tumblebug/src.main&#45;&gt;(golang.org/x/crypto/ssh.cbcError).Error</title>
<path fill="none" stroke="#8b4513" stroke-dasharray="5,2" d="M44.4704,-1040.8673C51.4714,-1123.3482 83.5759,-1463.7997 143,-1549.8 157.8385,-1571.2747 183.1198,-1586.6723 203.9105,-1596.4892"/>
<polygon fill="#8b4513" stroke="#8b4513" points="202.5368,-1599.709 213.0933,-1600.6088 205.402,-1593.3222 202.5368,-1599.709"/>
</g>
<!-- (golang.org/x/net/http2.ConnectionError).Error -->
<g id="node24" class="node">
<title>(golang.org/x/net/http2.ConnectionError).Error</title>
<ellipse fill="#ffe4b5" stroke="#000000" stroke-width="1.5" cx="238.2621" cy="-1707.8" rx="27" ry="23.52"/>
<text text-anchor="middle" x="238.2621" y="-1712" font-family="Verdana" font-size="14.00" fill="#000000">http2</text>
<text text-anchor="middle" x="238.2621" y="-1695.2" font-family="Verdana" font-size="14.00" fill="#000000">Error</text>
</g>
<!-- github.com/cloud&#45;barista/cb&#45;tumblebug/src.main&#45;&gt;(golang.org/x/net/http2.ConnectionError).Error -->
<g id="edge22" class="edge">
<title>github.com/cloud&#45;barista/cb&#45;tumblebug/src.main&#45;&gt;(golang.org/x/net/http2.ConnectionError).Error</title>
<path fill="none" stroke="#8b4513" stroke-dasharray="5,2" d="M43.8337,-1041.0909C48.3343,-1133.1167 72.2085,-1545.1156 143,-1647.8 157.8157,-1669.2904 183.098,-1684.6874 203.8948,-1694.5"/>
<polygon fill="#8b4513" stroke="#8b4513" points="202.5239,-1697.721 213.0808,-1698.6174 205.3871,-1691.3333 202.5239,-1697.721"/>
</g>
<!-- (golang.org/x/net/http2.GoAwayError).Error -->
<g id="node25" class="node">
<title>(golang.org/x/net/http2.GoAwayError).Error</title>
<ellipse fill="#ffe4b5" stroke="#000000" stroke-width="1.5" cx="238.2621" cy="-1805.8" rx="27" ry="23.52"/>
<text text-anchor="middle" x="238.2621" y="-1810" font-family="Verdana" font-size="14.00" fill="#000000">http2</text>
<text text-anchor="middle" x="238.2621" y="-1793.2" font-family="Verdana" font-size="14.00" fill="#000000">Error</text>
</g>
<!-- github.com/cloud&#45;barista/cb&#45;tumblebug/src.main&#45;&gt;(golang.org/x/net/http2.GoAwayError).Error -->
<g id="edge23" class="edge">
<title>github.com/cloud&#45;barista/cb&#45;tumblebug/src.main&#45;&gt;(golang.org/x/net/http2.GoAwayError).Error</title>
<path fill="none" stroke="#8b4513" stroke-dasharray="5,2" d="M43.3469,-1040.9157C45.5775,-1141.0104 60.558,-1626.2162 143,-1745.8 157.8157,-1767.2904 183.098,-1782.6874 203.8948,-1792.5"/>
<polygon fill="#8b4513" stroke="#8b4513" points="202.5239,-1795.721 213.0808,-1796.6174 205.3871,-1789.3333 202.5239,-1795.721"/>
</g>
<!-- (golang.org/x/net/http2.StreamError).Error -->
<g id="node26" class="node">
<title>(golang.org/x/net/http2.StreamError).Error</title>
<ellipse fill="#ffe4b5" stroke="#000000" stroke-width="1.5" cx="238.2621" cy="-1903.8" rx="27" ry="23.52"/>
<text text-anchor="middle" x="238.2621" y="-1908" font-family="Verdana" font-size="14.00" fill="#000000">http2</text>
<text text-anchor="middle" x="238.2621" y="-1891.2" font-family="Verdana" font-size="14.00" fill="#000000">Error</text>
</g>
<!-- github.com/cloud&#45;barista/cb&#45;tumblebug/src.main&#45;&gt;(golang.org/x/net/http2.StreamError).Error -->
<g id="edge13" class="edge">
<title>github.com/cloud&#45;barista/cb&#45;tumblebug/src.main&#45;&gt;(golang.org/x/net/http2.StreamError).Error</title>
<path fill="none" stroke="#8b4513" stroke-dasharray="5,2" d="M44.0775,-1041.0152C48.7451,-1117.3961 68.685,-1419.2733 106,-1664.8 118.2063,-1745.1151 96.7099,-1777.0412 143,-1843.8 157.8736,-1865.2504 183.1534,-1880.6491 203.9346,-1890.4725"/>
<polygon fill="#8b4513" stroke="#8b4513" points="202.5565,-1893.6904 213.1126,-1894.5954 205.4249,-1887.305 202.5565,-1893.6904"/>
</g>
<!-- (golang.org/x/net/http2.connError).Error -->
<g id="node27" class="node">
<title>(golang.org/x/net/http2.connError).Error</title>
<ellipse fill="#ffe4b5" stroke="#000000" stroke-width="1.5" cx="238.2621" cy="-2001.8" rx="27" ry="23.52"/>
<text text-anchor="middle" x="238.2621" y="-2006" font-family="Verdana" font-size="14.00" fill="#000000">http2</text>
<text text-anchor="middle" x="238.2621" y="-1989.2" font-family="Verdana" font-size="14.00" fill="#000000">Error</text>
</g>
<!-- github.com/cloud&#45;barista/cb&#45;tumblebug/src.main&#45;&gt;(golang.org/x/net/http2.connError).Error -->
<g id="edge17" class="edge">
<title>github.com/cloud&#45;barista/cb&#45;tumblebug/src.main&#45;&gt;(golang.org/x/net/http2.connError).Error</title>
<path fill="none" stroke="#8b4513" stroke-dasharray="5,2" d="M44.0046,-1041.0249C50.8779,-1163.4056 92.2108,-1863.0753 143,-1941.8 157.2426,-1963.8764 182.791,-1979.3112 203.8465,-1988.9926"/>
<polygon fill="#8b4513" stroke="#8b4513" points="202.5816,-1992.2591 213.1477,-1993.0392 205.3742,-1985.8403 202.5816,-1992.2591"/>
</g>
<!-- (google.golang.org/grpc/internal/transport.ConnectionError).Error -->
<g id="node28" class="node">
<title>(google.golang.org/grpc/internal/transport.ConnectionError).Error</title>
<ellipse fill="#ffe4b5" stroke="#000000" stroke-width="1.5" cx="238.2621" cy="-2099.8" rx="40.6878" ry="23.52"/>
<text text-anchor="middle" x="238.2621" y="-2104" font-family="Verdana" font-size="14.00" fill="#000000">transport</text>
<text text-anchor="middle" x="238.2621" y="-2087.2" font-family="Verdana" font-size="14.00" fill="#000000">Error</text>
</g>
<!-- github.com/cloud&#45;barista/cb&#45;tumblebug/src.main&#45;&gt;(google.golang.org/grpc/internal/transport.ConnectionError).Error -->
<g id="edge18" class="edge">
<title>github.com/cloud&#45;barista/cb&#45;tumblebug/src.main&#45;&gt;(google.golang.org/grpc/internal/transport.ConnectionError).Error</title>
<path fill="none" stroke="#8b4513" stroke-dasharray="5,2" d="M44.0542,-1040.9613C49.0703,-1125.7946 71.7093,-1491.48 106,-1789.8 118.8264,-1901.3867 81.6494,-1945.7139 143,-2039.8 155.294,-2058.6538 175.8035,-2072.6864 194.6498,-2082.4203"/>
<polygon fill="#8b4513" stroke="#8b4513" points="193.2034,-2085.609 203.7247,-2086.8557 196.2773,-2079.32 193.2034,-2085.609"/>
</g>
<!-- github.com/cloud&#45;barista/cb&#45;tumblebug/src/api/rest/server.ApiServer -->
<g id="node8" class="node">
<title>github.com/cloud&#45;barista/cb&#45;tumblebug/src/api/rest/server.ApiServer</title>
<ellipse fill="#ffe4b5" stroke="#000000" stroke-width="1.5" cx="506.7441" cy="-333.8" rx="46.1743" ry="23.52"/>
<text text-anchor="middle" x="506.7441" y="-338" font-family="Verdana" font-size="14.00" fill="#000000">restapi</text>
<text text-anchor="middle" x="506.7441" y="-321.2" font-family="Verdana" font-size="14.00" fill="#000000">ApiServer</text>
</g>
<!-- github.com/cloud&#45;barista/cb&#45;tumblebug/src.main$2&#45;&gt;github.com/cloud&#45;barista/cb&#45;tumblebug/src/api/rest/server.ApiServer -->
<g id="edge9" class="edge">
<title>github.com/cloud&#45;barista/cb&#45;tumblebug/src.main$2&#45;&gt;github.com/cloud&#45;barista/cb&#45;tumblebug/src/api/rest/server.ApiServer</title>
<path fill="none" stroke="#8b4513" d="M266.7402,-338.2696C310.1905,-337.4605 393.8992,-335.9015 450.0534,-334.8558"/>
<polygon fill="#8b4513" stroke="#8b4513" points="450.269,-338.3525 460.202,-334.6668 450.1386,-331.3537 450.269,-338.3525"/>
</g>
<!-- github.com/cloud&#45;barista/cb&#45;tumblebug/src/api/grpc/server.RunServer -->
<g id="node10" class="node">
<title>github.com/cloud&#45;barista/cb&#45;tumblebug/src/api/grpc/server.RunServer</title>
<ellipse fill="#ffe4b5" stroke="#000000" stroke-width="1.5" cx="506.7441" cy="-406.8" rx="47.9821" ry="23.52"/>
<text text-anchor="middle" x="506.7441" y="-411" font-family="Verdana" font-size="14.00" fill="#000000">server</text>
<text text-anchor="middle" x="506.7441" y="-394.2" font-family="Verdana" font-size="14.00" fill="#000000">RunServer</text>
</g>
<!-- github.com/cloud&#45;barista/cb&#45;tumblebug/src.main$3&#45;&gt;github.com/cloud&#45;barista/cb&#45;tumblebug/src/api/grpc/server.RunServer -->
<g id="edge11" class="edge">
<title>github.com/cloud&#45;barista/cb&#45;tumblebug/src.main$3&#45;&gt;github.com/cloud&#45;barista/cb&#45;tumblebug/src/api/grpc/server.RunServer</title>
<path fill="none" stroke="#8b4513" d="M266.7402,-400.5425C309.8094,-401.6654 392.4337,-403.8196 448.5693,-405.2832"/>
<polygon fill="#8b4513" stroke="#8b4513" points="448.6395,-408.7862 458.7273,-405.5481 448.822,-401.7885 448.6395,-408.7862"/>
</g>
</g>
</svg>
